:SAMPLES-PER-SECOND 30
:FULLY-SPECIFIED
:DEGREES
854
root  5.68358 37.7894 -0.105917 -142.069 -87.2967 137.833
RightUpLeg  -23.0833 -4.47671 -2.904
RightLeg  11.3605 2.00228 -0.0121619
RightFoot  2.80194 -0.283439 2.16811
RightToes  3.49245e-010 0 -3.6325e-017
Spine  6.76062 -1.59634 2.41986
Spine1  5.70665 -1.4757 -0.465795
HEad  -16.9678 4.26932 -4.53876
LeftShoulder1  -0.221072 4.08252 -32.0372
LeftArm  10.4636 -14.2339 -44.2471
LeftForeArm  20.961 -33.378 -6.19955
LeftHand  -0.0559637 4.45593 4.46562
RightShoulder  -0.811658 -5.74367 29.5984
RightArm  12.4126 -9.39376 43.5262
RightForeArm  20.1281 5.58654 6.44416
RightHand  -0.217664 5.62346 -2.61399
LeftUpLeg  13.5985 1.24674 -2.36825
LeftLeg  18.5722 4.39759 2.07868
LeftFoot  -23.8364 0.300432 1.46177
LeftToes  -5.6298e-010 8.41567e-011 -1.83319e-011
855
root  4.16978 37.4943 -0.352467 -167.991 -88.1913 163.162
RightUpLeg  -23.9102 -4.37274 -1.81529
RightLeg  17.9986 3.49281 1.05768
RightFoot  6.09142 -0.457126 3.25541
RightToes  3.49245e-010 0 -3.6325e-017
Spine  7.39499 -1.88474 5.51458
Spine1  5.43311 -1.34253 -1.25727
HEad  -17.2171 4.56481 -4.76371
LeftShoulder1  -0.273433 4.2036 -32.959
LeftArm  13.2015 -12.2612 -43.4727
LeftForeArm  20.4142 -33.0603 -6.15041
LeftHand  -0.0635961 4.25186 4.61893
RightShoulder  -0.883024 -5.91098 30.0834
RightArm  12.6877 -7.4812 43.2309
RightForeArm  20.4997 5.55635 6.56589
RightHand  -0.160235 5.14638 -2.06807
LeftUpLeg  14.2944 -0.46904 -0.841667
LeftLeg  23.8817 4.14299 2.31691
LeftFoot  -24.4051 -0.133733 -2.43973
LeftToes  -5.6298e-010 8.41567e-011 -1.83319e-011
856
root  2.68294 37.2459 -0.599943 152.439 -87.7241 -157.676
RightUpLeg  -24.8308 -4.07973 -0.121682
RightLeg  25.0496 3.81759 1.72097
RightFoot  3.64496 -0.042359 0.485188
RightToes  3.49245e-010 0 -3.6325e-017
Spine  7.63328 -1.96451 8.77954
Spine1  5.48031 -0.824726 -2.26493
HEad  -16.7245 4.18664 -4.4538
LeftShoulder1  -0.250655 4.13922 -33.2992
LeftArm  16.2947 -9.4587 -43.2214
LeftForeArm  19.2079 -31.3023 -5.78447
LeftHand  -0.0431043 4.85073 4.7593
RightShoulder  -0.803214 -5.70296 29.8902
RightArm  12.6592 -5.29182 43.9742
RightForeArm  20.8506 4.96738 6.66377
RightHand  -0.102858 4.52857 -1.49415
LeftUpLeg  13.1491 -0.278321 1.33899
LeftLeg  31.8192 2.29282 1.84913
LeftFoot  -22.4032 -0.600344 -7.85167
LeftToes  -5.6298e-010 8.41567e-011 -1.83319e-011
857
root  1.30894 37.1163 -0.923794 133.437 -87.3305 -138.77
RightUpLeg  -24.7342 -4.36883 1.22575
RightLeg  29.7382 3.59414 1.97113
RightFoot  0.0625942 0.11356 -1.10011
RightToes  3.49245e-010 0 -3.6325e-017
Spine  7.82877 -1.93737 10.7067
Spine1  5.16463 -0.376583 -2.22781
HEad  -15.839 4.05472 -3.97897
LeftShoulder1  -0.209635 4.03949 -33.0149
LeftArm  20.0728 -6.26539 -43.6529
LeftForeArm  17.5469 -28.1206 -5.08015
LeftHand  -0.0494528 4.55548 3.90553
RightShoulder  -0.809311 -5.72103 29.8694
RightArm  12.527 -3.03164 44.9183
RightForeArm  20.984 4.61423 6.72144
RightHand  -0.0883154 4.57397 -1.31833
LeftUpLeg  9.56449 0.256181 3.69203
LeftLeg  41.5654 0.53795 0.922869
LeftFoot  -15.036 -0.295018 -11.2435
LeftToes  -5.6298e-010 8.41567e-011 -1.83319e-011
858
root  -0.0422128 37.1534 -1.25708 114.844 -86.8202 -120.423
RightUpLeg  -23.1417 -3.94114 2.45322
RightLeg  32.024 2.66735 1.54413
RightFoot  -3.3273 0.0791137 -1.43601
RightToes  3.49245e-010 0 -3.6325e-017
Spine  7.8837 -1.73384 12.2214
Spine1  4.78096 0.0365299 -1.98646
HEad  -14.5415 3.32335 -3.81676
LeftShoulder1  -0.241078 4.11389 -33.3584
LeftArm  24.7549 -3.70194 -43.9172
LeftForeArm  15.7156 -24.2993 -4.6089
LeftHand  -0.0201664 5.685 3.05907
RightShoulder  -0.801805 -5.71144 29.6874
RightArm  13.2565 -0.68684 45.5269
RightForeArm  19.7809 5.23071 7.09183
RightHand  -0.147479 4.33702 -2.04153
LeftUpLeg  4.69873 0.585667 5.803
LeftLeg  51.3844 0.647362 1.40045
LeftFoot  -1.66693 0.643765 -8.39342
LeftToes  -5.6298e-010 8.41567e-011 -1.83319e-011
859
root  -1.3013 37.2171 -1.51805 99.4739 -86.5174 -105.497
RightUpLeg  -21.1036 -4.00902 3.20037
RightLeg  33.5903 2.01257 1.17886
RightFoot  -6.24283 0.0263726 -1.5473
RightToes  3.49245e-010 0 -3.6325e-017
Spine  8.0023 -1.68082 13.6427
Spine1  4.68555 0.447425 -2.25794
HEad  -13.484 2.42265 -3.63012
LeftShoulder1  -0.300138 4.24991 -34.0944
LeftArm  24.248 -1.78447 -43.616
LeftForeArm  19.142 -19.4622 -5.99427
LeftHand  -0.0248765 5.73052 1.45823
RightShoulder  -0.805344 -5.71682 29.76
RightArm  13.6323 2.1392 45.9534
RightForeArm  19.1606 6.27485 7.28903
RightHand  -0.174462 4.16386 -2.39511
LeftUpLeg  -0.182959 0.242612 6.73984
LeftLeg  59.36 1.1567 2.58934
LeftFoot  8.73916 0.633379 -3.58431
LeftToes  -5.6298e-010 8.41567e-011 -1.83319e-011
860
root  -2.5345 37.472 -1.75052 90.585 -86.7495 -97.3357
RightUpLeg  -17.8906 -4.61402 3.11256
RightLeg  33.416 2.07658 1.20946
RightFoot  -8.36901 -0.0133813 -1.64518
RightToes  3.49245e-010 0 -3.6325e-017
Spine  8.08493 -1.6221 14.1673
Spine1  4.91321 0.79411 -2.77296
HEad  -12.6352 2.11159 -3.34059
LeftShoulder1  -0.348649 4.36143 -34.4772
LeftArm  14.8782 0.547008 -42.8396
LeftForeArm  29.7064 -14.0169 -9.40305
LeftHand  -0.0241001 6.155 1.11494
RightShoulder  -0.784456 -5.67542 29.4815
RightArm  13.9101 5.14949 46.7997
RightForeArm  17.6149 7.51744 7.37941
RightHand  -0.202129 4.77599 -2.59103
LeftUpLeg  -3.9422 0.216293 6.922
LeftLeg  64.6132 0.2623 1.28354
LeftFoot  5.72625 0.401812 -2.92889
LeftToes  -5.6298e-010 8.41567e-011 -1.83319e-011
861
root  -3.79029 37.8211 -1.95216 94.9882 -87.3288 -102.108
RightUpLeg  -14.5411 -4.94568 2.54328
RightLeg  32.1703 2.56604 1.48051
RightFoot  -10.0471 -0.0512967 -1.50599
RightToes  3.49245e-010 0 -3.6325e-017
Spine  7.67582 -1.16028 14.4774
Spine1  5.23466 1.48963 -3.77461
HEad  -11.7226 1.03219 -3.43718
LeftShoulder1  -0.403285 4.48065 -35.1211
LeftArm  5.02974 3.29046 -41.4615
LeftForeArm  38.117 -8.96841 -10.8852
LeftHand  -0.0214744 7.46329 0.997673
RightShoulder  -0.760137 -5.64198 28.9074
RightArm  14.8321 7.77681 47.7176
RightForeArm  15.1718 9.41844 7.35032
RightHand  -0.259269 5.99996 -2.97028
LeftUpLeg  -7.43735 0.747669 6.26372
LeftLeg  66.5496 -0.211836 0.186369
LeftFoot  4.2624 0.4392 -3.39325
LeftToes  -5.6298e-010 8.41567e-011 -1.83319e-011
862
root  -5.01614 38.152 -2.1145 102.751 -87.6895 -110.029
RightUpLeg  -11.2654 -4.8331 2.12623
RightLeg  30.3902 2.82346 1.53549
RightFoot  -11.2326 -0.0742769 -1.42599
RightToes  3.49245e-010 0 -3.6325e-017
Spine  7.3087 -0.729807 15.2876
Spine1  5.05269 2.29275 -5.39222
HEad  -10.6684 0.598975 -3.1385
LeftShoulder1  -0.401148 4.48253 -34.8208
LeftArm  0.133074 6.92084 -40.1919
LeftForeArm  40.4954 -6.06825 -10.6553
LeftHand  -0.0405667 7.99155 0.203711
RightShoulder  -0.790157 -5.72638 28.9239
RightArm  16.6025 9.76336 48.1373
RightForeArm  13.0598 12.0839 6.92883
RightHand  -0.216788 5.84573 -2.56283
LeftUpLeg  -10.8369 1.25842 5.50082
LeftLeg  66.1956 -0.623672 -0.84357
LeftFoot  2.89488 0.373216 -3.11744
LeftToes  -5.6298e-010 8.41567e-011 -1.83319e-011
863
root  -6.21515 38.4689 -2.2533 111.807 -87.9836 -118.966
RightUpLeg  -8.10504 -5.04932 1.66568
RightLeg  28.1006 3.38258 1.70648
RightFoot  -12.1909 -0.0911527 -1.13038
RightToes  3.49245e-010 0 -3.6325e-017
Spine  6.70124 -0.189782 15.4857
Spine1  4.94273 2.86339 -6.12994
HEad  -9.96825 0.233342 -3.26521
LeftShoulder1  -0.406017 4.49721 -34.7069
LeftArm  -2.47674 10.7024 -39.1041
LeftForeArm  40.8228 -4.95086 -9.7973
LeftHand  -0.0705301 8.85387 -0.758625
RightShoulder  -0.806816 -5.79123 28.6508
RightArm  19.6623 11.8649 48.3934
RightForeArm  9.04121 14.7468 6.48138
RightHand  -0.316663 5.93132 -3.57217
LeftUpLeg  -14.0423 1.83435 4.74499
LeftLeg  63.3704 -1.12446 -1.80298
LeftFoot  0.866431 0.256663 -2.46351
LeftToes  -5.6298e-010 8.41567e-011 -1.83319e-011
864
root  -7.40443 38.7658 -2.38505 121.301 -88.5231 -128.525
RightUpLeg  -4.63337 -6.17632 0.739322
RightLeg  25.559 4.58228 2.1178
RightFoot  -13.0518 -0.104775 -1.11431
RightToes  3.49245e-010 0 -3.6325e-017
Spine  6.4403 0.188862 15.4601
Spine1  4.66077 3.30562 -7.22577
HEad  -9.71167 -0.083602 -3.45287
LeftShoulder1  -0.39916 4.4852 -34.5136
LeftArm  -2.30915 14.0588 -37.5138
LeftForeArm  40.7638 -4.92924 -9.70063
LeftHand  -0.0545521 7.83921 -0.639243
RightShoulder  -0.772115 -5.72339 28.1568
RightArm  22.4476 13.2233 48.5948
RightForeArm  5.58609 17.9234 5.60217
RightHand  -0.342982 6.70325 -3.63512
LeftUpLeg  -16.2412 2.24544 3.7275
LeftLeg  57.9677 -1.44513 -1.99033
LeftFoot  -1.29744 0.208431 -2.26981
LeftToes  -5.6298e-010 8.41567e-011 -1.83319e-011
865
root  -8.5541 39.0095 -2.50644 149.555 -88.9306 -156.599
RightUpLeg  -1.41883 -6.91926 -0.22082
RightLeg  22.7063 5.51874 2.14347
RightFoot  -13.794 -0.115032 -1.01108
RightToes  3.49245e-010 0 -3.6325e-017
Spine  6.19853 0.626365 15.0364
Spine1  4.27115 3.70507 -8.37494
HEad  -9.64197 -0.412853 -3.26624
LeftShoulder1  -0.380811 4.45068 -34.0711
LeftArm  -0.760753 17.0569 -35.9799
LeftForeArm  39.6983 -5.55693 -10.1605
LeftHand  -0.0467802 9.24053 0.144446
RightShoulder  -0.740072 -5.6488 27.8482
RightArm  23.3194 14.3369 48.6658
RightForeArm  4.92852 20.8247 4.83353
RightHand  -0.351433 7.69508 -3.47462
LeftUpLeg  -17.833 3.07868 2.52956
LeftLeg  50.2845 -0.827111 -0.667657
LeftFoot  -2.57769 0.128368 -1.48182
LeftToes  -5.6298e-010 8.41567e-011 -1.83319e-011
